{
  "accessors": [
    {
      "bufferView": 2,
      "componentType": 5126,
      "count": 7835,
      "max": [
        0.58979600667953491,
        0.62020301818847656,
        1.6997400522232056
      ],
      "min": [
        -0.602183997631073,
        -0.58347702026367188,
        -0.0053090001456439495
      ],
      "type": "VEC3"
    },
    {
      "bufferView": 2,
      "byteOffset": 94020,
      "componentType": 5126,
      "count": 7835,
      "max": [
        0.99999892711639404,
        0.99984210729598999,
        0.99985438585281372
      ],
      "min": [
        -0.99949496984481812,
        -0.99981087446212769,
        -0.99999797344207764
      ],
      "type": "VEC3"
    },
    {
      "bufferView": 3,
      "componentType": 5126,
      "count": 7835,
      "max": [
        0.99920612573623657,
        0.99984866380691528,
        0.99412310123443604,
        1
      ],
      "min": [
        -0.97714877128601074,
        -0.99993091821670532,
        -0.95520490407943726,
        1
      ],
      "type": "VEC4"
    },
    {
      "bufferView": 1,
      "componentType": 5126,
      "count": 7835,
      "max": [
        0.99988502264022827,
        0.87527602910995483
      ],
      "min": [
        1.2999999853491317e-05,
        3.5000000934815034e-05
      ],
      "type": "VEC2"
    },
    {
      "bufferView": 1,
      "byteOffset": 62680,
      "componentType": 5126,
      "count": 7835,
      "max": [
        0.99988502264022827,
        0.87527602910995483
      ],
      "min": [
        1.2999999853491317e-05,
        3.5000000934815034e-05
      ],
      "type": "VEC2"
    },
    {
      "bufferView": 1,
      "byteOffset": 125360,
      "componentType": 5126,
      "count": 7835,
      "max": [
        0.99988502264022827,
        0.87527602910995483
      ],
      "min": [
        1.2999999853491317e-05,
        3.5000000934815034e-05
      ],
      "type": "VEC2"
    },
    {
      "bufferView": 1,
      "byteOffset": 188040,
      "componentType": 5126,
      "count": 7835,
      "max": [
        0.99988502264022827,
        0.87527602910995483
      ],
      "min": [
        1.2999999853491317e-05,
        3.5000000934815034e-05
      ],
      "type": "VEC2"
    },
    {
      "bufferView": 0,
      "componentType": 5125,
      "count": 45000,
      "max": [
        7834
      ],
      "min": [
        0
      ],
      "type": "SCALAR"
    }
  ],
  "asset": {
    "extras": {
      "author": "nhsy (https://sketchfab.com/nhsy)",
      "license": "CC-BY-4.0 (http://creativecommons.org/licenses/by/4.0/)",
      "source": "https://sketchfab.com/3d-models/binh-hoa-son-mai-a665e209a79e4e01a3e2fa5abff03f6a",
      "title": "bình hòa sơn mài"
    },
    "generator": "Sketchfab-9.72.0",
    "version": "2.0"
  },
  "bufferViews": [
    {
      "buffer": 0,
      "byteLength": 180000,
      "byteOffset": 0,
      "name": "floatBufferViews",
      "target": 34963
    },
    {
      "buffer": 0,
      "byteLength": 250720,
      "byteOffset": 180000,
      "byteStride": 8,
      "name": "floatBufferViews",
      "target": 34962
    },
    {
      "buffer": 0,
      "byteLength": 188040,
      "byteOffset": 430720,
      "byteStride": 12,
      "name": "floatBufferViews",
      "target": 34962
    },
    {
      "buffer": 0,
      "byteLength": 125360,
      "byteOffset": 618760,
      "byteStride": 16,
      "name": "floatBufferViews",
      "target": 34962
    }
  ],
  "buffers": [
    {
      "byteLength": 744120,
      "uri": "scene.bin"
    }
  ],
  "images": [
    {
      "uri": "textures/vase_scan_baseColor.jpeg"
    },
    {
      "uri": "textures/vase_scan_metallicRoughness.png"
    },
    {
      "uri": "textures/vase_scan_normal.png"
    }
  ],
  "materials": [
    {
      "doubleSided": true,
      "emissiveFactor": [
        0,
        0,
        0
      ],
      "name": "vase_scan",
      "normalTexture": {
        "index": 2,
        "scale": 1,
        "texCoord": 0
      },
      "pbrMetallicRoughness": {
        "baseColorFactor": [
          1,
          1,
          1,
          1
        ],
        "baseColorTexture": {
          "index": 0,
          "texCoord": 0
        },
        "metallicFactor": 0.50028399999999995,
        "metallicRoughnessTexture": {
          "index": 1,
          "texCoord": 0
        },
        "roughnessFactor": 0.59999999999999998
      }
    }
  ],
  "meshes": [
    {
      "primitives": [
        {
          "attributes": {
            "NORMAL": 1,
            "POSITION": 0,
            "TANGENT": 2,
            "TEXCOORD_0": 3,
            "TEXCOORD_1": 4,
            "TEXCOORD_2": 5,
            "TEXCOORD_3": 6
          },
          "indices": 7,
          "material": 0,
          "mode": 4
        }
      ]
    }
  ],
  "nodes": [
    {
      "children": [
        1
      ],
      "name": "RootNode (gltf orientation matrix)",
      "rotation": [
        -0.70710678118654746,
        -0,
        -0,
        0.70710678118654757
      ]
    },
    {
      "children": [
        2
      ],
      "name": "RootNode (model correction matrix)"
    },
    {
      "children": [
        3
      ],
      "name": "root"
    },
    {
      "children": [
        4
      ],
      "matrix": [
        1,
        0,
        0,
        0,
        0,
        2.2204460492503131e-16,
        1,
        0,
        0,
        -1,
        2.2204460492503131e-16,
        0,
        0,
        0,
        0,
        1
      ],
      "name": "GLTF_SceneRootNode"
    },
    {
      "children": [
        5
      ],
      "matrix": [
        1,
        0,
        -0,
        0,
        -0,
        0,
        -1,
        0,
        0,
        1,
        0,
        0,
        0,
        0,
        0,
        1
      ],
      "name": "RootNode (gltf orientation matrix)_0"
    },
    {
      "children": [
        6
      ],
      "matrix": [
        0.097630001604557037,
        0,
        0,
        0,
        0,
        0.097630001604557037,
        0,
        0,
        0,
        0,
        0.097630001604557037,
        0,
        0,
        0,
        0,
        1
      ],
      "name": "RootNode (model correction matrix)_1"
    },
    {
      "children": [
        7
      ],
      "name": "vase_export.obj.cleaner.materialmerger.gles_2"
    },
    {
      "children": [
        8
      ],
      "name": "_3"
    },
    {
      "mesh": 0,
      "name": ""
    }
  ],
  "samplers": [
    {
      "magFilter": 9729,
      "minFilter": 9987,
      "wrapS": 10497,
      "wrapT": 10497
    }
  ],
  "scene": 0,
  "scenes": [
    {
      "name": "OSG_Scene",
      "nodes": [
        0
      ]
    }
  ],
  "textures": [
    {
      "sampler": 0,
      "source": 0
    },
    {
      "sampler": 0,
      "source": 1
    },
    {
      "sampler": 0,
      "source": 2
    }
  ]
}

